# xmcd
#
# Track frame offsets:
#	150
#	25330
#	49360
#	72572
#	101545
#	119677
#	144035
#	169430
#	190220
#	210345
#	235697
#	251077
#	268747
#	299677
#
# Disc length: 4624 seconds
#
# Revision: 1
# Processed by: cddbd v1.5.1PL2 Copyright (c) Steve Scherf et al.
# Submitted via: EasyCDDAExtractor 9.0.0.1
#
DISCID=dc120e0e
DTITLE=Various Artist - LIVE BLUES
DYEAR=1998
DGENRE=Blues
TTITLE0=Jimmy Thackery - Wild Night out - 1995
TTITLE1=20 Ans D'Antone's - Big Fat Mama - 1996
TTITLE2=B.B. King - Thrill is gone - 1972
TTITLE3=Stevie Ray Vaughan - Texas Flood - 1986
TTITLE4=Albert King - Watermelon Man - 1979
TTITLE5=George Thorogood and Johnny Johnson - St. Louis Blues - 1995
TTITLE6=Roy Rogers and Norton Buffalo - Shake Your Money Maker - 1992
TTITLE7=Etta James and Eddie "Clearhead" Vinson - Only Women Bleed - 1987
TTITLE8=Gary Moore and Albert Collins - Too Tired - 1993
TTITLE9=Poppa Chubby - Stoop Down Baby - 1996
TTITLE10=Lightnin' Hopkins - Me and Ray Charles - 1962
TTITLE11=Willie Dixon and Memphis Slim - Pigalle Love - 1962
TTITLE12=Buddy Guy - First Time i Met the Blues - 1996
TTITLE13=25 Ans D'Alligator's - All Star Jam - Sweet home Chicago - 1993
EXTD=
EXTT0=
EXTT1=
EXTT2=
EXTT3=
EXTT4=
EXTT5=
EXTT6=
EXTT7=
EXTT8=
EXTT9=
EXTT10=
EXTT11=
EXTT12=
EXTT13=
PLAYORDER=
